<?xml version="1.0" encoding="UTF-8" standalone="no"?>
<svg
   xmlns:dc="http://purl.org/dc/elements/1.1/"
   xmlns:cc="http://creativecommons.org/ns#"
   xmlns:rdf="http://www.w3.org/1999/02/22-rdf-syntax-ns#"
   xmlns:svg="http://www.w3.org/2000/svg"
   xmlns="http://www.w3.org/2000/svg"
   id="svg34"
   version="1.1"
   viewBox="0 0 48.16 48.16"
   height="48.16mm"
   width="48.16mm">
  <defs
     id="defs28">
    <marker
       style="overflow:visible"
       id="marker1168"
       refX="0"
       refY="0"
       orient="auto">
      <path
         transform="matrix(0.8,0,0,0.8,10,0)"
         style="fill:#63508b;fill-opacity:1;fill-rule:evenodd;stroke:none;stroke-width:1pt;stroke-opacity:1"
         d="M 0,0 5,-5 -12.5,0 5,5 Z"
         id="path1166" />
    </marker>
    <marker
       style="overflow:visible"
       id="marker1152"
       refX="0"
       refY="0"
       orient="auto">
      <path
         transform="matrix(0.8,0,0,0.8,10,0)"
         style="fill:#63508b;fill-opacity:1;fill-rule:evenodd;stroke:none;stroke-width:1pt;stroke-opacity:1"
         d="M 0,0 5,-5 -12.5,0 5,5 Z"
         id="path1150" />
    </marker>
    <marker
       style="overflow:visible"
       id="Arrow1Lstart"
       refX="0"
       refY="0"
       orient="auto">
      <path
         transform="matrix(0.8,0,0,0.8,10,0)"
         style="fill-rule:evenodd;stroke:#000000;stroke-width:1pt"
         d="M 0,0 5,-5 -12.5,0 5,5 Z"
         id="path880" />
    </marker>
    <filter
       height="1.72"
       y="-0.36000001"
       width="1.72"
       x="-0.36000001"
       id="filter3081"
       style="color-interpolation-filters:sRGB">
      <feGaussianBlur
         id="feGaussianBlur3083"
         stdDeviation="4.2" />
    </filter>
  </defs>
  <metadata
     id="metadata31">
    <rdf:RDF>
      <cc:Work
         rdf:about="">
        <dc:format>image/svg+xml</dc:format>
        <dc:type
           rdf:resource="http://purl.org/dc/dcmitype/StillImage" />
        <dc:title></dc:title>
      </cc:Work>
    </rdf:RDF>
  </metadata>
  <g
     transform="translate(-141.24201,-184.89768)"
     id="layer1">
    <circle
       r="14"
       cy="208.97768"
       cx="165.32201"
       id="path861-4-8-0-0"
       style="opacity:0.5;mix-blend-mode:normal;fill:#63508b;stroke-width:0.222555;filter:url(#filter3081)" />
    <path
       id="path861-4-1-5-0-2-6"
       style="opacity:0.9;mix-blend-mode:normal;fill:#63508b;stroke-width:0.264583"
       d="m 165.43783,202.1675 a 16.643803,16.643803 0 0 0 -0.52917,0.009 16.643803,16.643803 0 0 0 -0.35243,0.0155 16.643803,16.643803 0 0 0 -0.35243,0.0233 16.643803,16.643803 0 0 0 -0.3514,0.0305 16.643803,16.643803 0 0 0 -3.45044,0.71056 16.643803,16.643803 0 0 0 -0.16795,0.0548 16.643803,16.643803 0 0 0 -0.29042,0.0992 16.643803,16.643803 0 0 0 -1.11982,0.43977 16.643803,16.643803 0 0 0 -10.0025,15.26108 16.643803,16.643803 0 0 0 0.003,0.26097 16.643803,16.643803 0 0 0 6.64146,1.38286 16.643803,16.643803 0 0 0 10.00042,-3.33933 16.643803,16.643803 0 0 0 9.9994,3.33933 16.643803,16.643803 0 0 0 6.64197,-1.38286 16.643803,16.643803 0 0 0 0.002,-0.26097 16.643803,16.643803 0 0 0 -10.0025,-15.26108 16.643803,16.643803 0 0 0 -0.98391,-0.39119 16.643803,16.643803 0 0 0 -0.50023,-0.17208 16.643803,16.643803 0 0 0 -0.16847,-0.0538 16.643803,16.643803 0 0 0 -0.16123,-0.0501 16.643803,16.643803 0 0 0 -0.007,-0.002 16.643803,16.643803 0 0 0 -0.009,-0.003 16.643803,16.643803 0 0 0 -0.16019,-0.0475 16.643803,16.643803 0 0 0 -5.3e-4,0 16.643803,16.643803 0 0 0 -0.16485,-0.047 16.643803,16.643803 0 0 0 -0.005,-0.002 16.643803,16.643803 0 0 0 -0.004,-0.001 16.643803,16.643803 0 0 0 -0.1664,-0.0455 16.643803,16.643803 0 0 0 -0.3421,-0.0879 16.643803,16.643803 0 0 0 -0.3328,-0.078 16.643803,16.643803 0 0 0 -0.0104,-0.003 16.643803,16.643803 0 0 0 -0.0181,-0.004 16.643803,16.643803 0 0 0 -0.15451,-0.0331 16.643803,16.643803 0 0 0 -0.17259,-0.0357 16.643803,16.643803 0 0 0 -0.17364,-0.0341 16.643803,16.643803 0 0 0 -0.87075,-0.14159 16.643803,16.643803 0 0 0 -0.34313,-0.0429 16.643803,16.643803 0 0 0 -0.007,-10e-4 16.643803,16.643803 0 0 0 -0.13797,-0.015 16.643803,16.643803 0 0 0 -0.0377,-0.004 16.643803,16.643803 0 0 0 -0.0341,-0.003 16.643803,16.643803 0 0 0 -0.1416,-0.0139 16.643803,16.643803 0 0 0 -0.1757,-0.0155 16.643803,16.643803 0 0 0 -0.14572,-0.0114 16.643803,16.643803 0 0 0 -0.03,-0.002 16.643803,16.643803 0 0 0 -0.0289,-0.002 16.643803,16.643803 0 0 0 -0.14728,-0.009 16.643803,16.643803 0 0 0 -0.33952,-0.0176 16.643803,16.643803 0 0 0 -0.0129,-5.3e-4 16.643803,16.643803 0 0 0 -0.0202,-5.3e-4 16.643803,16.643803 0 0 0 -0.15606,-0.005 16.643803,16.643803 0 0 0 -0.34623,-0.007 16.643803,16.643803 0 0 0 -0.007,0 16.643803,16.643803 0 0 0 -0.12609,-5.2e-4 16.643803,16.643803 0 0 0 -0.0274,0 z" />
    <path
       id="path861-4-3-3-6-4"
       style="opacity:0.9;mix-blend-mode:normal;fill:#63508b;stroke-width:0.264583"
       d="m 165.46575,190.50697 a 16.643803,16.643803 0 0 0 -6.64352,13.30412 16.643803,16.643803 0 0 0 6.64352,13.30462 16.643803,16.643803 0 0 0 6.64404,-13.30462 16.643803,16.643803 0 0 0 -6.64404,-13.30412 z" />
  </g>
</svg>
