<svg xmlns="http://www.w3.org/2000/svg" viewBox="0 0 48.16 48.16" height="48.16mm" width="48.16mm"><defs><filter height="1.72" y="-.36" width="1.72" x="-.36" id="a" color-interpolation-filters="sRGB"><feGaussianBlur stdDeviation="4.2"/></filter></defs><g transform="translate(-141.242 -184.898)" fill="#63508b"><circle r="14" cy="208.978" cx="165.322" style="mix-blend-mode:normal" opacity=".5" filter="url(#a)"/><path style="mix-blend-mode:normal" d="M165.438 202.167a16.644 16.644 0 00-.53.01 16.644 16.644 0 00-.352.015 16.644 16.644 0 00-.352.023 16.644 16.644 0 00-.352.03 16.644 16.644 0 00-3.45.711 16.644 16.644 0 00-.168.055 16.644 16.644 0 00-.29.1 16.644 16.644 0 00-1.12.44 16.644 16.644 0 00-10.003 15.26 16.644 16.644 0 00.003.261 16.644 16.644 0 006.642 1.383 16.644 16.644 0 0010-3.34 16.644 16.644 0 0010 3.34 16.644 16.644 0 006.642-1.383 16.644 16.644 0 00.002-.26 16.644 16.644 0 00-10.003-15.262 16.644 16.644 0 00-.984-.391 16.644 16.644 0 00-.5-.172 16.644 16.644 0 00-.169-.054 16.644 16.644 0 00-.16-.05 16.644 16.644 0 00-.008-.002 16.644 16.644 0 00-.009-.003 16.644 16.644 0 00-.16-.048 16.644 16.644 0 00-.165-.047 16.644 16.644 0 00-.005-.002 16.644 16.644 0 00-.004 0 16.644 16.644 0 00-.167-.046 16.644 16.644 0 00-.342-.088 16.644 16.644 0 00-.333-.078 16.644 16.644 0 00-.01-.003 16.644 16.644 0 00-.018-.004 16.644 16.644 0 00-.155-.033 16.644 16.644 0 00-.172-.036 16.644 16.644 0 00-.174-.034 16.644 16.644 0 00-.87-.141 16.644 16.644 0 00-.344-.043 16.644 16.644 0 00-.007-.001 16.644 16.644 0 00-.138-.015 16.644 16.644 0 00-.037-.004 16.644 16.644 0 00-.035-.003 16.644 16.644 0 00-.141-.014 16.644 16.644 0 00-.176-.016 16.644 16.644 0 00-.146-.011 16.644 16.644 0 00-.03-.002 16.644 16.644 0 00-.029-.002 16.644 16.644 0 00-.147-.01 16.644 16.644 0 00-.34-.017 16.644 16.644 0 00-.012 0 16.644 16.644 0 00-.02 0 16.644 16.644 0 00-.156-.006 16.644 16.644 0 00-.347-.007 16.644 16.644 0 00-.007 0 16.644 16.644 0 00-.126 0 16.644 16.644 0 00-.027 0z" opacity=".9"/><path style="mix-blend-mode:normal" d="M165.466 190.507a16.644 16.644 0 00-6.644 13.304 16.644 16.644 0 006.644 13.305 16.644 16.644 0 006.644-13.305 16.644 16.644 0 00-6.644-13.304z" opacity=".9"/></g></svg>